# xmcd
#
# Track frame offsets: 
#        150
#        14503
#        31863
#        50580
#        61623
#        87873
#        104693
#        115778
#        152600
#        169653
#        195985
#        199278
#        219908
#        232193
#        244230
#        270740
#        305198
#        318700
#        336958
#        342548
#        346280
#        352198
#
# Disc length: 4766 seconds
#
# Revision: 0
# Processed by: cddbd v1.5.2PL0 Copyright (c) Steve Scherf et al.
# Submitted via: ExactAudioCopy v0.95b3
#
DISCID=50129c16
DTITLE=John Lennon   - Jealous Guy - The Imagine Sessions  FLAC
DYEAR=1900
DGENRE=
TTITLE0=Imagine - Alternate Take
TTITLE1=Crippled Inside - Alternate Take
TTITLE2=Jealous Guy - Alternate Take
TTITLE3=It's So Hard - Alternate Take
TTITLE4=I Don't Want to Be a Soldier Mama - Alternate Take
TTITLE5=Give Me Some Truth - Alternate Take
TTITLE6=Oh My Love - Alternate Take
TTITLE7=How Do You Sleep? - Alternate Take
TTITLE8=How? - Alternate Take
TTITLE9=Oh Yoko! - Alternate Take
TTITLE10=Deep Water - Session Outtake
TTITLE11=How Do You Sleep? - Rehearsal
TTITLE12=Oh My Love - Different Take
TTITLE13=I'm the Greatest - Different Take
TTITLE14=Well (Baby Please Don't Go) - Session Outtake
TTITLE15=How Do You Sleep? - Different Vocals
TTITLE16=Imagine - Piano Outtake
TTITLE17=I Found Out - Acoustic Demo
TTITLE18=Well, Well, Well - Alternate Take
TTITLE19=San Franciusco Blues - Acoustic Outtake
TTITLE20=Corrina, Corrina - Acoustic Outtake
TTITLE21=J.J. - Acoustic Outtake
EXTD=
EXTT0=
EXTT1=
EXTT2=
EXTT3=
EXTT4=
EXTT5=
EXTT6=
EXTT7=
EXTT8=
EXTT9=
EXTT10=
EXTT11=
EXTT12=
EXTT13=
EXTT14=
EXTT15=
EXTT16=
EXTT17=
EXTT18=
EXTT19=
EXTT20=
EXTT21=
PLAYORDER=
